<?xml version="1.0"?>
<svg xmlns="http://www.w3.org/2000/svg" viewBox="0 0 16 16" style="background-color: #000000">
    <path fill="#ffffff" d="M10.461,6.402C10.797,5.958,11,5.362,11,4.75C11,3.285,9.598,2,8,2C6.346,2,5,3.346,5,5v6.5C5,12.327,4.327,13,3.5,13H3v1 h0.5c1.232,0,2.26-0.896,2.463-2.072C6.64,12.586,7.561,13,8.5,13c1.93,0,3.5-1.57,3.5-3.5C12,8.173,11.459,7.096,10.461,6.402z M8.5,12c-1.079,0-2.164-0.797-2.5-1.825V5c0-1.103,0.897-2,2-2c1.126,0,2,0.94,2,1.75C10,5.258,9.771,5.756,9.451,6H8v1h1.488 C10.485,7.492,11,8.329,11,9.5C11,10.879,9.879,12,8.5,12z"/>
</svg>
